<svg width="18" height="18" fill="none" xmlns="http://www.w3.org/2000/svg"><path fill-rule="evenodd" clip-rule="evenodd" d="M3.75 3.75A.75.75 0 0 0 3 4.5V15c0 .414.336.75.75.75h10.5A.75.75 0 0 0 15 15V4.5a.75.75 0 0 0-.75-.75H3.75zM1.5 4.5a2.25 2.25 0 0 1 2.25-2.25h10.5A2.25 2.25 0 0 1 16.5 4.5V15a2.25 2.25 0 0 1-2.25 2.25H3.75A2.25 2.25 0 0 1 1.5 15V4.5z" fill="#333"/><path fill-rule="evenodd" clip-rule="evenodd" d="M12 .75a.75.75 0 0 1 .75.75v3a.75.75 0 0 1-1.5 0v-3A.75.75 0 0 1 12 .75zM6 .75a.75.75 0 0 1 .75.75v3a.75.75 0 0 1-1.5 0v-3A.75.75 0 0 1 6 .75zM1.5 7.5a.75.75 0 0 1 .75-.75h13.5a.75.75 0 0 1 0 1.5H2.25a.75.75 0 0 1-.75-.75z" fill="#333"/></svg>