<svg width="18" height="18" fill="none" xmlns="http://www.w3.org/2000/svg"><path fill-rule="evenodd" clip-rule="evenodd" d="M3 8.25a.75.75 0 0 1 .75.75v6.75h10.5V9a.75.75 0 0 1 1.5 0v7.5a.75.75 0 0 1-.75.75H3a.75.75 0 0 1-.75-.75V9A.75.75 0 0 1 3 8.25z" fill="#333"/><path fill-rule="evenodd" clip-rule="evenodd" d="M.75 5.25a.75.75 0 0 1 .75-.75h15a.75.75 0 0 1 .75.75V9a.75.75 0 0 1-.75.75h-15A.75.75 0 0 1 .75 9V5.25zm1.5.75v2.25h13.5V6H2.25z" fill="#333"/><path fill-rule="evenodd" clip-rule="evenodd" d="M9 4.5a.75.75 0 0 1 .75.75V16.5a.75.75 0 0 1-1.5 0V5.25A.75.75 0 0 1 9 4.5z" fill="#333"/><path fill-rule="evenodd" clip-rule="evenodd" d="M5.625 2.25a1.125 1.125 0 0 0 0 2.25h2.366a6.15 6.15 0 0 0-.351-.764C7.168 2.88 6.52 2.25 5.625 2.25zM9 5.25l.735-.148v-.006l-.003-.012a3.563 3.563 0 0 0-.042-.177 8.02 8.02 0 0 0-.736-1.893C8.394 1.996 7.354.75 5.625.75a2.625 2.625 0 0 0 0 5.25H9a.75.75 0 0 0 .735-.898L9 5.25z" fill="#333"/><path fill-rule="evenodd" clip-rule="evenodd" d="M9.046 3.014c.56-1.018 1.6-2.264 3.329-2.264a2.625 2.625 0 0 1 0 5.25H9a.75.75 0 0 1-.735-.897L9 5.25l-.735-.147v-.007l.003-.012a3.563 3.563 0 0 1 .042-.177 8.02 8.02 0 0 1 .736-1.893zm.963 1.486h2.366a1.125 1.125 0 0 0 0-2.25c-.895 0-1.543.629-2.015 1.486-.143.261-.259.524-.35.764zm-.274.898z" fill="#333"/></svg>