<svg width="48" height="8" fill="none" xmlns="http://www.w3.org/2000/svg"><path fill-rule="evenodd" clip-rule="evenodd" d="M4 .333c.127 0 .243.072.299.186l.952 1.93 2.13.311a.333.333 0 0 1 .185.569l-1.541 1.5.364 2.121a.333.333 0 0 1-.484.352L4 6.3 2.095 7.302a.333.333 0 0 1-.483-.352l.363-2.12-1.54-1.501a.333.333 0 0 1 .184-.569l2.13-.311L3.7.519A.333.333 0 0 1 4 .333zM4 1.42 3.269 2.9a.333.333 0 0 1-.25.183l-1.636.24 1.183 1.152a.333.333 0 0 1 .096.295l-.28 1.627 1.463-.769a.333.333 0 0 1 .31 0l1.462.77-.279-1.628a.333.333 0 0 1 .096-.295l1.183-1.153-1.635-.239a.333.333 0 0 1-.25-.182L4 1.42z" fill="#F2994A"/><path d="M2.333 5 1 3l2-.333L4 1l1 1.667 2 .666-1.333 1.334L6 7 4 6 2 7l.333-2z" fill="#F2994A"/><path fill-rule="evenodd" clip-rule="evenodd" d="M14 .333c.127 0 .243.072.299.186l.953 1.93 2.13.311a.333.333 0 0 1 .184.569l-1.541 1.5.364 2.121a.334.334 0 0 1-.484.352L14 6.3l-1.905 1.002a.333.333 0 0 1-.484-.352l.364-2.12-1.54-1.501a.334.334 0 0 1 .183-.569l2.13-.311.953-1.93a.333.333 0 0 1 .3-.186zm0 1.087L13.27 2.9a.334.334 0 0 1-.25.183l-1.636.24 1.183 1.152a.333.333 0 0 1 .096.295l-.28 1.627 1.463-.769a.333.333 0 0 1 .31 0l1.462.77-.279-1.628a.333.333 0 0 1 .096-.295l1.183-1.153-1.635-.239a.334.334 0 0 1-.25-.182L14 1.42z" fill="#F2994A"/><path d="M12.333 5 11 3l2-.333L14 1l1 1.667 2 .666-1.333 1.334L16 7l-2-1-2 1 .333-2z" fill="#F2994A"/><path fill-rule="evenodd" clip-rule="evenodd" d="M24 .333c.127 0 .243.072.299.186l.953 1.93 2.13.311a.333.333 0 0 1 .184.569l-1.541 1.5.364 2.121a.334.334 0 0 1-.484.352L24 6.3l-1.905 1.002a.333.333 0 0 1-.483-.352l.363-2.12-1.54-1.501a.334.334 0 0 1 .184-.569l2.13-.311.952-1.93a.333.333 0 0 1 .3-.186zm0 1.087L23.27 2.9a.334.334 0 0 1-.25.183l-1.636.24 1.183 1.152a.333.333 0 0 1 .096.295l-.28 1.627 1.463-.769a.333.333 0 0 1 .31 0l1.462.77-.279-1.628a.333.333 0 0 1 .096-.295l1.183-1.153-1.635-.239a.334.334 0 0 1-.25-.182L24 1.42z" fill="#F2994A"/><path d="M22.333 5 21 3l2-.333L24 1l1 1.667 2 .666-1.333 1.334L26 7l-2-1-2 1 .333-2z" fill="#F2994A"/><path fill-rule="evenodd" clip-rule="evenodd" d="M34 .333c.127 0 .243.072.299.186l.953 1.93 2.13.311a.333.333 0 0 1 .184.569l-1.541 1.5.364 2.121a.334.334 0 0 1-.484.352L34 6.3l-1.905 1.002a.333.333 0 0 1-.483-.352l.363-2.12-1.54-1.501a.334.334 0 0 1 .184-.569l2.13-.311.952-1.93a.333.333 0 0 1 .3-.186zm0 1.087L33.27 2.9a.334.334 0 0 1-.25.183l-1.636.24 1.183 1.152a.333.333 0 0 1 .096.295l-.28 1.627 1.463-.769a.333.333 0 0 1 .31 0l1.462.77-.279-1.628a.333.333 0 0 1 .096-.295l1.183-1.153-1.635-.239a.334.334 0 0 1-.25-.182L34 1.42z" fill="#F2994A"/><path d="M32.333 5 31 3l2-.333L34 1l1 1.667 2 .666-1.333 1.334L36 7l-2-1-2 1 .333-2z" fill="#F2994A"/><path fill-rule="evenodd" clip-rule="evenodd" d="M44 .333c.127 0 .243.072.299.186l.953 1.93 2.13.311a.333.333 0 0 1 .184.569l-1.541 1.5.364 2.121a.334.334 0 0 1-.484.352L44 6.3l-1.905 1.002a.333.333 0 0 1-.483-.352l.363-2.12-1.54-1.501a.334.334 0 0 1 .183-.569l2.13-.311.953-1.93a.333.333 0 0 1 .3-.186zm0 1.087L43.27 2.9a.334.334 0 0 1-.25.183l-1.636.24 1.183 1.152a.333.333 0 0 1 .096.295l-.28 1.627 1.463-.769a.333.333 0 0 1 .31 0l1.462.77-.279-1.628a.333.333 0 0 1 .096-.295l1.183-1.153-1.635-.239a.334.334 0 0 1-.25-.182L44 1.42z" fill="#F2994A"/><path d="M42.333 5 41 3l2-.333L44 1l1 1.667 2 .666-1.333 1.334L46 7l-2-1-2 1 .333-2z" fill="#F2994A"/></svg>