<svg width="18" height="18" fill="none" xmlns="http://www.w3.org/2000/svg"><path fill-rule="evenodd" clip-rule="evenodd" d="M9 .75a.75.75 0 0 1 .673.418l2.143 4.342 4.792.7a.75.75 0 0 1 .415 1.28l-3.467 3.377.818 4.771a.75.75 0 0 1-1.088.79L9 14.176l-4.286 2.254a.75.75 0 0 1-1.088-.79l.818-4.772L.977 7.49a.75.75 0 0 1 .415-1.28l4.792-.7 2.143-4.342A.75.75 0 0 1 9 .75zm0 2.444L7.355 6.527a.75.75 0 0 1-.564.41l-3.68.538 2.662 2.593a.75.75 0 0 1 .216.664l-.628 3.662 3.29-1.73a.75.75 0 0 1 .698 0l3.29 1.73-.628-3.662a.75.75 0 0 1 .216-.664l2.662-2.593-3.68-.538a.75.75 0 0 1-.564-.41L9 3.194z" fill="#333"/></svg>